<?xml version="1.0" encoding="utf-8"?>
<!-- Generator: Adobe Illustrator 21.0.0, SVG Export Plug-In . SVG Version: 6.00 Build 0)  -->
<svg version="1.1" xmlns="http://www.w3.org/2000/svg" xmlns:xlink="http://www.w3.org/1999/xlink" x="0px" y="0px"
	 viewBox="0 0 100 100" style="enable-background:new 0 0 100 100;" xml:space="preserve">
<style type="text/css">
	.st0{fill:#20A088;}
	.st1{fill:none;}
	.st2{fill:#F2F2F2;}
	.st3{font-family:'Whitman-BoldOsF';}
	.st4{font-size:14px;}
	.st5{letter-spacing:1;}
	.st6{stroke:#000000;stroke-miterlimit:10;}
</style>
<g id="Circle">
	<g>
		<g>
			<path class="st0" d="M50,0C22.4,0,0,22.4,0,50c0,27.6,22.4,50,50,50s50-22.4,50-50C100,22.4,77.6,0,50,0z M50,87
				c-20.4,0-37-16.6-37-37c0-20.4,16.6-37,37-37s37,16.6,37,37C87,70.4,70.4,87,50,87z"/>
		</g>
		<g>
			<circle class="st1" cx="50" cy="50" r="37"/>
		</g>
	</g>
</g>
<g id="Cross_Left">
	<g>
		<polygon class="st2" points="10.3,65.7 7.3,66.1 5.9,57.3 1.9,57.9 1.4,54.9 5.4,54.3 4.7,50.3 7.7,49.9 8.3,53.8 12.3,53.2 
			12.8,56.1 8.8,56.8 		"/>
	</g>
</g>
<g id="Cross_Right">
	<g>
		<polygon class="st2" points="89.9,65.7 92.9,66.1 94.3,57.3 98.3,57.9 98.8,54.9 94.8,54.3 95.5,50.3 92.5,49.9 91.9,53.8 
			87.9,53.2 87.4,56.1 91.4,56.8 		"/>
	</g>
</g>
<g id="COCO">
	<text transform="matrix(0.9453 0.3262 -0.3262 0.9453 23.6612 90.8813)" class="st2 st3 st4 st5">C</text>
	<text transform="matrix(0.9968 -8.037999e-02 8.037999e-02 0.9968 52.8006 97.1081)" class="st2 st3 st4 st5">C</text>
	<text transform="matrix(0.9982 6.070000e-02 -6.070000e-02 0.9982 37.8444 96.3941)" class="st2 st3 st4 st5">O</text>
	<text transform="matrix(0.9585 -0.2851 0.2851 0.9585 67.3256 94.1719)" class="st2 st3 st4 st5">O</text>
</g>
<g id="Girl">
	<g>
		<circle cx="64" cy="39.7" r="8.2"/>
		<path d="M64,31.9c4.3,0,7.7,3.5,7.7,7.7s-3.5,7.7-7.7,7.7s-7.7-3.5-7.7-7.7S59.7,31.9,64,31.9 M64,30.9c-4.8,0-8.7,3.9-8.7,8.7
			s3.9,8.7,8.7,8.7s8.7-3.9,8.7-8.7S68.8,30.9,64,30.9L64,30.9z"/>
	</g>
	<g>
		<polygon points="61.5,70.5 61.5,62.5 55.7,62.5 58.5,54.1 58.5,48.5 69.5,48.5 69.5,54.1 72.3,62.5 66.5,62.5 66.5,70.5 		"/>
		<path d="M69,49v5v0.2l0.1,0.2l2.6,7.7H67h-1v1v7h-2h-2v-7v-1h-1h-4.6l2.6-7.7l0.1-0.2V54v-5H69 M70,48H58v6l-3,9h6v8h3h3v-8h6
			l-3-9V48L70,48z"/>
	</g>
	<path class="st6" d="M80,44c-3.5,4.5-8.5,8.5-10.5,9.5v-5c2-1,6-5,6.8-6.5c0.1-0.2,0.5-0.2,0.7-0.1c1.3,0.6,1.6,0.7,2.9,1.3
		C80.2,43.3,80.2,43.7,80,44z"/>
	<path class="st6" d="M48,44c3.5,4.5,8.5,8.5,10.5,9.5v-5c-2-1-6-5-6.8-6.5c-0.1-0.2-0.5-0.2-0.7-0.1c-1.3,0.6-1.6,0.7-2.9,1.3
		C47.8,43.3,47.8,43.7,48,44z"/>
</g>
<g id="Boy">
	<g>
		<circle cx="36" cy="39.7" r="8.2"/>
		<path d="M36,31.9c4.3,0,7.7,3.5,7.7,7.7s-3.5,7.7-7.7,7.7s-7.7-3.5-7.7-7.7S31.7,31.9,36,31.9 M36,30.9c-4.8,0-8.7,3.9-8.7,8.7
			s3.9,8.7,8.7,8.7s8.7-3.9,8.7-8.7S40.8,30.9,36,30.9L36,30.9z"/>
	</g>
	<g>
		<polygon points="40.3,70.5 36,62.9 31.7,70.5 27.7,70.5 30.5,62.1 30.5,48.5 41.5,48.5 41.5,62.1 44.3,70.5 		"/>
		<path d="M41,49v4v3v6v0.2l0.1,0.2l2.6,7.7h-3l-3.7-6.5L36,61.9l-0.9,1.5L31.4,70h-3l2.6-7.7l0.1-0.2V62v-6v-3v-4H41 M42,48H30v5v3
			v6l-3,9h5l4-7.1l4,7.1h5l-3-9v-6v-3V48L42,48z"/>
	</g>
	<path class="st6" d="M52,44c-3.5,4.5-8.5,8.5-10.5,9.5v-5c2-1,6-5,6.8-6.5c0.1-0.2,0.5-0.2,0.7-0.1c1.3,0.6,1.6,0.7,2.9,1.3
		C52.2,43.3,52.2,43.7,52,44z"/>
	<path class="st6" d="M20,44c3.5,4.5,8.5,8.5,10.5,9.5v-5c-2-1-6-5-6.8-6.5c-0.1-0.2-0.5-0.2-0.7-0.1c-1.3,0.6-1.6,0.7-2.9,1.3
		C19.8,43.3,19.8,43.7,20,44z"/>
</g>
</svg>
